<?xml version="1.0" standalone="no"?>
<!DOCTYPE svg PUBLIC "-//W3C//DTD SVG 20010904//EN"
 "http://www.w3.org/TR/2001/REC-SVG-20010904/DTD/svg10.dtd">
<svg version="1.0" xmlns="http://www.w3.org/2000/svg"
 width="500.000000pt" height="500.000000pt" viewBox="0 0 500.000000 500.000000"
 preserveAspectRatio="xMidYMid meet">

<g transform="translate(0.000000,500.000000) scale(0.100000,-0.100000)"
fill="#000000" stroke="none">
<path d="M1870 4366 c-696 -282 -1279 -520 -1297 -529 -105 -55 -205 -195
-255 -357 l-23 -75 -3 -1400 c-2 -933 1 -1416 8 -1448 25 -117 121 -248 231
-314 112 -67 -13 -63 1969 -63 1964 0 1851 -3 1962 57 59 32 145 113 180 168
14 22 36 67 49 100 l24 60 3 1370 c2 971 0 1389 -8 1435 -30 173 -156 319
-331 382 l-64 23 -1532 5 -1532 5 997 404 c548 222 1000 407 1004 410 7 6
-102 282 -111 280 -3 -1 -575 -231 -1271 -513z m2350 -1461 l0 -375 -235 0
-235 0 0 140 0 140 -155 0 -155 0 0 -140 0 -140 -1330 0 -1330 0 0 375 0 375
1720 0 1720 0 0 -375z m0 -1465 l0 -770 -1720 0 -1720 0 0 770 0 770 1720 0
1720 0 0 -770z"/>
<path d="M1505 1958 c-171 -32 -332 -185 -377 -357 -49 -188 6 -377 145 -507
98 -91 208 -134 342 -134 143 0 252 46 356 151 156 156 192 375 96 579 -37 80
-140 185 -218 224 -101 49 -231 66 -344 44z"/>
</g>
</svg>
